<?xml version="1.0" standalone="no"?>
<!DOCTYPE svg PUBLIC "-//W3C//DTD SVG 20010904//EN"
 "http://www.w3.org/TR/2001/REC-SVG-20010904/DTD/svg10.dtd">
<svg version="1.0" xmlns="http://www.w3.org/2000/svg"
 width="177.000000pt" height="100.000000pt" viewBox="0 0 177.000000 100.000000"
 preserveAspectRatio="xMidYMid meet">

<g transform="translate(0.000000,100.000000) scale(0.100000,-0.100000)"
fill="#000000" stroke="none">
<path d="M0 500 l0 -500 885 0 885 0 0 500 0 500 -885 0 -885 0 0 -500z m1660
0 l0 -320 -775 0 -775 0 0 320 0 320 775 0 775 0 0 -320z"/>
<path d="M175 758 c-3 -29 -12 -132 -20 -228 -8 -96 -18 -210 -21 -252 l-7
-78 60 0 c71 0 72 2 74 93 1 59 1 60 9 22 5 -22 11 -57 15 -77 6 -38 6 -38 54
-38 l49 0 15 78 14 77 2 -62 c2 -89 4 -93 66 -93 30 0 56 4 59 9 5 8 -25 422
-40 549 l-6 52 -53 0 -54 0 -10 -52 c-6 -29 -18 -84 -25 -123 -8 -38 -15 -68
-16 -65 0 3 -11 57 -23 120 l-22 115 -57 3 -56 3 -7 -53z"/>
<path d="M665 800 c-34 -14 -72 -63 -89 -113 -22 -66 -22 -283 0 -358 26 -88
77 -129 161 -129 107 0 159 77 170 247 10 175 -23 303 -90 343 -34 21 -114 26
-152 10z m97 -142 c7 -15 12 -70 12 -153 1 -108 -2 -135 -17 -158 -20 -31 -44
-27 -58 10 -12 32 -12 265 1 297 12 32 45 34 62 4z"/>
<path d="M938 793 c-3 -10 -5 -147 -4 -303 l1 -285 108 -8 c59 -5 119 -6 133
-3 24 6 25 10 22 69 l-3 62 -68 3 -68 3 3 52 3 52 60 5 60 5 0 65 0 65 -62 3
-63 3 0 44 0 44 68 3 67 3 5 47 c10 80 10 80 -132 85 -116 5 -125 4 -130 -14z"/>
<path d="M1236 703 c-16 -61 -23 -110 -18 -115 5 -5 21 -10 36 -11 26 -2 30 4
67 92 21 51 39 97 39 102 0 10 -26 21 -71 32 -26 7 -27 6 -53 -100z"/>
<path d="M1432 793 c-18 -9 -43 -34 -56 -57 -58 -100 -39 -181 64 -282 68 -67
83 -97 59 -121 -13 -13 -68 -2 -100 21 -13 9 -27 16 -31 16 -5 0 -8 -31 -8
-70 0 -68 1 -70 31 -86 17 -8 54 -18 83 -21 42 -4 57 -1 85 19 56 38 75 71 79
141 5 82 -15 123 -98 199 -55 50 -61 60 -58 90 3 28 7 33 31 36 16 2 43 -6 63
-17 19 -12 39 -21 45 -21 5 0 9 31 9 69 l0 69 -40 16 c-51 20 -116 20 -158 -1z"/>
</g>
</svg>
